<?xml version="1.0" encoding="UTF-8"?>
<!DOCTYPE svg PUBLIC "-//W3C//DTD SVG 1.1//EN" "http://www.w3.org/Graphics/SVG/1.1/DTD/svg11.dtd">
<svg xmlns="http://www.w3.org/2000/svg" version="1.1" width="512px" height="512px" style="shape-rendering:geometricPrecision; text-rendering:geometricPrecision; image-rendering:optimizeQuality; fill-rule:evenodd; clip-rule:evenodd" xmlns:xlink="http://www.w3.org/1999/xlink">
<g><path style="opacity:1" fill="#494a49" d="M 102.5,55.5 C 136.167,55.5 169.833,55.5 203.5,55.5C 203.5,189.167 203.5,322.833 203.5,456.5C 169.833,456.5 136.167,456.5 102.5,456.5C 102.5,322.833 102.5,189.167 102.5,55.5 Z"/></g>
<g><path style="opacity:1" fill="#a1a1a1" d="M 218.5,55.5 C 282.168,55.3333 345.834,55.5 409.5,56C 346,119.5 282.5,183 219,246.5C 218.5,182.834 218.333,119.168 218.5,55.5 Z"/></g>
<g><path style="opacity:1" fill="#a1a1a1" d="M 218.5,265.5 C 282.299,328.799 345.965,392.299 409.5,456C 345.834,456.5 282.168,456.667 218.5,456.5C 218.5,392.833 218.5,329.167 218.5,265.5 Z"/></g>
</svg>
